<?xml version="1.0" encoding="UTF-8"?>
<svg id="libery-star-blue" data-name="libery-star-blue" xmlns="http://www.w3.org/2000/svg" viewBox="0 0 678.23 625.76">
  <defs>
    <style>
      .libery-star-blue-cls-1 {
        fill: #032140;
      }
    </style>
  </defs>
  <g id="libery-star-blue" data-name="libery-star-blue">
    <polygon class="libery-star-blue-cls-1" points="344.95 309.97 428.76 179.76 439.98 412.48 344.95 309.97"/>
    <polygon class="libery-star-blue-cls-1" points="245.83 422.68 337.17 309.97 344.95 309.97 439.98 412.48 440.08 414.6 350.78 399.36 340.09 398.75 245.83 422.68"/>
    <polygon class="libery-star-blue-cls-1" points="251.66 175.1 337.17 309.97 245.83 422.68 249.03 341.61 251.66 175.1"/>
    <polygon class="libery-star-blue-cls-1" points="251.66 175.1 337.5 228.67 344.95 228.34 428.76 179.76 344.95 309.97 337.17 309.97 251.66 175.1"/>
    <polygon class="libery-star-blue-cls-1" points="147.05 213.33 174.9 254.58 335.23 92.31 147.05 213.33"/>
    <polygon class="libery-star-blue-cls-1" points="349.16 92.31 508.57 243.09 539.1 203.69 349.16 92.31"/>
    <polygon class="libery-star-blue-cls-1" points="251.66 175.1 250.1 275.96 157.05 273.17 251.66 175.1"/>
    <polygon class="libery-star-blue-cls-1" points="339.43 92.31 335.23 92.31 251.66 175.1 314.72 215.69 339.43 92.31"/>
    <polygon class="libery-star-blue-cls-1" points="339.43 92.31 342.23 92.31 371.18 213.77 344.95 228.34 337.5 228.67 314.72 215.69 339.43 92.31"/>
    <polygon class="libery-star-blue-cls-1" points="437.26 174.9 371.18 213.77 342.23 92.31 349.16 92.31 437.26 174.9"/>
    <polygon class="libery-star-blue-cls-1" points="250.1 275.96 157.05 273.17 154.1 275.96 249.03 341.61 250.1 275.96"/>
    <polygon class="libery-star-blue-cls-1" points="245.83 422.68 154.1 275.96 249.03 341.61 245.83 422.68"/>
    <polygon class="libery-star-blue-cls-1" points="154.1 275.96 93.27 337.77 232.23 434.34 313.85 484.87 245.83 422.68 154.1 275.96"/>
    <polygon class="libery-star-blue-cls-1" points="245.83 422.68 340.09 398.75 342.57 497.72 343.97 500.88 307.22 478.81 245.83 422.68"/>
    <polygon class="libery-star-blue-cls-1" points="340.09 398.75 342.57 497.72 343.97 500.88 346.89 497.72 350.78 399.36 340.09 398.75"/>
    <polygon class="libery-star-blue-cls-1" points="350.78 399.36 440.08 414.6 441.14 419.76 435.31 431.43 411.99 454.75 343.97 500.88 346.89 497.72 350.78 399.36"/>
    <polygon class="libery-star-blue-cls-1" points="432.93 266.25 535.5 266.25 437.26 174.9 428.76 179.76 432.93 266.25"/>
    <polygon class="libery-star-blue-cls-1" points="432.93 266.25 535.5 266.25 436.27 335.57 432.93 266.25"/>
    <polygon class="libery-star-blue-cls-1" points="436.27 335.57 440.08 414.6 535.5 266.25 436.27 335.57"/>
    <polygon class="libery-star-blue-cls-1" points="535.5 266.25 592.72 324.54 445.03 435.31 411.99 454.75 435.31 431.43 441.14 419.76 440.08 414.6 535.5 266.25"/>
    <polygon class="libery-star-blue-cls-1" points="343.97 500.88 411.99 454.75 445.03 435.31 459.06 424.79 531.51 580.09 531.51 587.47 343.97 500.88"/>
    <polygon class="libery-star-blue-cls-1" points="544.17 360.96 531.54 579.58 459.08 424.28 544.17 360.96"/>
    <polygon class="libery-star-blue-cls-1" points="343.97 500.88 226.19 430.14 155.47 598.55 343.97 500.88"/>
    <polygon class="libery-star-blue-cls-1" points="226.19 430.14 148.53 376.17 155.47 598.55 226.19 430.14"/>
    <polygon class="libery-star-blue-cls-1" points="260.43 544.17 343.97 625.76 424.35 537.99 343.97 500.88 260.43 544.17"/>
    <polygon class="libery-star-blue-cls-1" points="118.54 369.24 69.96 435.31 151.54 472.84 150.47 438.32 118.54 369.24"/>
    <polygon class="libery-star-blue-cls-1" points="538.55 458.17 623.1 421.04 570.29 361.46 565.52 367.29 540.47 425.59 538.55 458.17"/>
    <polygon class="libery-star-blue-cls-1" points="147.05 213.33 154.1 4.75 218.6 167.4 147.05 213.33"/>
    <polygon class="libery-star-blue-cls-1" points="218.6 167.4 279.8 128.1 154.1 4.75 218.6 167.4"/>
    <polygon class="libery-star-blue-cls-1" points="154.1 4.75 335.23 92.31 279.8 128.1 154.1 4.75"/>
    <polygon class="libery-star-blue-cls-1" points="349.16 92.31 520.82 0 406.98 126.35 349.16 92.31"/>
    <polygon class="libery-star-blue-cls-1" points="406.98 126.35 520.82 0 465.3 160.49 406.98 126.35"/>
    <polygon class="libery-star-blue-cls-1" points="465.3 160.49 539.1 203.69 520.82 0 465.3 160.49"/>
    <polygon class="libery-star-blue-cls-1" points="294.6 72.67 335.23 22.02 384.77 73.16 349.16 92.31 335.23 92.31 294.6 72.67"/>
    <polygon class="libery-star-blue-cls-1" points="335.23 92.31 335.23 22.02 349.16 92.31 335.23 92.31"/>
    <polygon class="libery-star-blue-cls-1" points="148.07 183.23 147.05 213.33 174.9 254.58 150.19 279.93 0 235.15 148.07 183.23"/>
    <polygon class="libery-star-blue-cls-1" points="150.19 279.93 93.27 337.77 0 235.15 150.19 279.93"/>
    <polygon class="libery-star-blue-cls-1" points="508.57 243.09 539.1 203.69 536.52 174.9 678.23 227.37 535.5 266.25 508.57 243.09"/>
    <polygon class="libery-star-blue-cls-1" points="535.5 266.25 592.72 324.54 678.23 227.37 535.5 266.25"/>
    <polygon class="libery-star-blue-cls-1" points="592.72 324.54 544.17 360.96 540.47 425.59 565.52 367.29 570.29 361.46 592.72 324.54"/>
    <polygon class="libery-star-blue-cls-1" points="150.47 438.32 118.54 369.24 93.27 337.77 148.53 376.17 150.47 438.32"/>
  </g>
</svg>