<svg  viewBox="0 0 1809 714" fill="none" xmlns="http://www.w3.org/2000/svg">
    <g id="Lines-Symbols">
        <line id="Line 29" y1="0" x2="1510.2" y2="0" transform="matrix(0.930861 0.365374 -0.804345 0.594162 3.7123 162.073)" stroke="#232323" stroke-opacity="0.72"/>
        <line id="Line 33" y1="0" x2="1942.29" y2="0" transform="matrix(0.930861 0.365374 -0.804345 0.594162 0 1)" stroke="#232323" stroke-opacity="0.72"/>
        <line id="Line 31" y1="0" x2="1636.82" y2="0" transform="matrix(0.930861 0.365374 -0.804345 0.594162 3.90157 115.95)" stroke="#232323" stroke-opacity="0.72"/>
        <line id="Line 34" y1="0" x2="1819.77" y2="0" transform="matrix(0.930861 0.365374 -0.804345 0.594162 2.01764 46.0258)" stroke="#232323" stroke-opacity="0.72"/>
        <line id="Line 30" y1="0" x2="1575.19" y2="0" transform="matrix(0.930861 0.365374 -0.804345 0.594162 3.02475 137.82)" stroke="#232323" stroke-opacity="0.72"/>
        <line id="Line 35" y1="0" x2="1762.76" y2="0" transform="matrix(0.930861 0.365374 -0.804345 0.594162 1.65619 67.5016)" stroke="#232323" stroke-opacity="0.72"/>
        <line id="Line 32" y1="0" x2="1701.81" y2="0" transform="matrix(0.930861 0.365374 -0.804345 0.594162 3.21428 91.6974)" stroke="#232323" stroke-opacity="0.72"/>
        <line id="Line 36" y1="0" x2="1884.78" y2="0" transform="matrix(0.930861 0.365374 -0.804345 0.594162 0.972427 22.0213)" stroke="#232323" stroke-opacity="0.72"/>
    </g>
</svg>
