<?xml version="1.0" encoding="UTF-8"?>
<svg id="libery-star-full" data-name="libery-star-full
" xmlns="http://www.w3.org/2000/svg" viewBox="0 0 681.49 628.85">
  <defs>

  </defs>
  <g id="libery-star-full-group" data-name="Vector Normal">
    <polygon class="libery-star-full-element libery-star-full-cls-4" points="346.57 312.33 430.38 182.13 441.6 414.85 346.57 312.33"/>
    <polygon class="libery-star-full-element libery-star-full-cls-3" points="247.46 425.05 338.79 312.33 346.57 312.33 441.6 414.85 441.7 416.96 352.4 401.73 341.71 401.12 247.46 425.05"/>
    <polygon class="libery-star-full-element libery-star-full-cls-1" points="253.29 177.46 338.79 312.33 247.46 425.05 250.65 343.97 253.29 177.46"/>
    <polygon class="libery-star-full-element libery-star-full-cls-9" points="253.29 177.46 339.12 231.03 346.57 230.71 430.38 182.13 346.57 312.33 338.79 312.33 253.29 177.46"/>
    <polygon class="libery-star-full-element libery-star-full-cls-23" points="148.67 215.7 176.52 256.95 336.85 94.68 148.67 215.7"/>
    <polygon class="libery-star-full-element libery-star-full-cls-23" points="350.78 94.68 510.19 245.45 540.73 206.05 350.78 94.68"/>
    <polygon class="libery-star-full-element libery-star-full-cls-19" points="253.29 177.46 251.72 278.33 158.67 275.54 253.29 177.46"/>
    <polygon class="libery-star-full-element libery-star-full-cls-19" points="341.05 94.68 336.85 94.68 253.29 177.46 316.34 218.06 341.05 94.68"/>
    <polygon class="libery-star-full-element libery-star-full-cls-12" points="341.05 94.68 343.85 94.68 372.8 216.14 346.57 230.71 339.12 231.03 316.34 218.06 341.05 94.68"/>
    <polygon class="libery-star-full-element libery-star-full-cls-18" points="438.88 177.27 372.8 216.14 343.85 94.68 350.78 94.68 438.88 177.27"/>
    <polygon class="libery-star-full-element libery-star-full-cls-14" points="251.72 278.33 158.67 275.54 155.72 278.33 250.65 343.97 251.72 278.33"/>
    <polygon class="libery-star-full-element libery-star-full-cls-10" points="247.46 425.05 155.72 278.33 250.65 343.97 247.46 425.05"/>
    <polygon class="libery-star-full-element libery-star-full-cls-17" points="155.72 278.33 94.89 340.14 233.85 436.71 315.47 487.23 247.46 425.05 155.72 278.33"/>
    <polygon class="libery-star-full-element libery-star-full-cls-16" points="247.46 425.05 341.71 401.12 344.19 500.08 345.59 503.24 308.84 481.17 247.46 425.05"/>
    <polygon class="libery-star-full-element libery-star-full-cls-5" points="341.71 401.12 344.19 500.08 345.59 503.24 348.51 500.08 352.4 401.73 341.71 401.12"/>
    <polygon class="libery-star-full-element libery-star-full-cls-16" points="352.4 401.73 441.7 416.96 442.76 422.13 436.93 433.79 413.61 457.11 345.59 503.24 348.51 500.08 352.4 401.73"/>
    <polygon class="libery-star-full-element libery-star-full-cls-18" points="434.55 268.62 537.12 268.62 438.88 177.27 430.38 182.13 434.55 268.62"/>
    <polygon class="libery-star-full-element libery-star-full-cls-14" points="434.55 268.62 537.12 268.62 437.89 337.94 434.55 268.62"/>
    <polygon class="libery-star-full-element libery-star-full-cls-10" points="437.89 337.94 441.7 416.96 537.12 268.62 437.89 337.94"/>
    <polygon class="libery-star-full-element libery-star-full-cls-17" points="537.12 268.62 594.34 326.91 446.65 437.68 413.61 457.11 436.93 433.79 442.76 422.13 441.7 416.96 537.12 268.62"/>
    <polygon class="libery-star-full-element libery-star-full-cls-22" points="345.59 503.24 413.61 457.11 446.65 437.68 460.68 427.16 533.13 582.46 533.13 589.84 345.59 503.24"/>
    <polygon class="libery-star-full-element libery-star-full-cls-21" points="545.79 363.32 533.16 581.95 460.71 426.65 545.79 363.32"/>
    <polygon class="libery-star-full-element libery-star-full-cls-22" points="345.59 503.24 227.81 432.51 157.09 600.92 345.59 503.24"/>
    <polygon class="libery-star-full-element libery-star-full-cls-21" points="227.81 432.51 150.15 378.54 157.09 600.92 227.81 432.51"/>
    <polygon class="libery-star-full-element libery-star-full-cls-6" points="262.05 546.53 345.59 628.13 425.97 540.36 345.59 503.24 262.05 546.53"/>
    <polygon class="libery-star-full-element libery-star-full-cls-6" points="120.17 371.6 71.58 437.68 153.16 475.2 152.09 440.69 120.17 371.6"/>
    <polygon class="libery-star-full-element libery-star-full-cls-6" points="540.17 460.54 624.72 423.4 571.91 363.83 567.14 369.66 542.09 427.96 540.17 460.54"/>
    <polygon class="libery-star-full-element libery-star-full-cls-2" points="148.67 215.7 155.72 7.12 220.22 169.76 148.67 215.7"/>
    <polygon class="libery-star-full-element libery-star-full-cls-7" points="220.22 169.76 281.42 130.47 155.72 7.12 220.22 169.76"/>
    <polygon class="libery-star-full-element libery-star-full-cls-8" points="155.72 7.12 336.85 94.68 281.42 130.47 155.72 7.12"/>
    <polygon class="libery-star-full-element libery-star-full-cls-8" points="350.78 94.68 522.44 2.37 408.6 128.72 350.78 94.68"/>
    <polygon class="libery-star-full-element libery-star-full-cls-7" points="408.6 128.72 522.44 2.37 466.92 162.86 408.6 128.72"/>
    <polygon class="libery-star-full-element libery-star-full-cls-2" points="466.92 162.86 540.73 206.05 522.44 2.37 466.92 162.86"/>
    <polygon class="libery-star-full-element libery-star-full-cls-13" points="296.22 75.04 336.85 24.39 386.39 75.53 350.78 94.68 336.85 94.68 296.22 75.04"/>
    <polygon class="libery-star-full-element libery-star-full-cls-8" points="336.85 94.68 336.85 24.39 350.78 94.68 336.85 94.68"/>
    <polygon class="libery-star-full-element libery-star-full-cls-20" points="149.69 185.59 148.67 215.7 176.52 256.95 151.82 282.3 1.62 237.51 149.69 185.59"/>
    <polygon class="libery-star-full-element libery-star-full-cls-15" points="151.82 282.3 94.89 340.14 1.62 237.51 151.82 282.3"/>
    <polygon class="libery-star-full-element libery-star-full-cls-20" points="510.19 245.45 540.73 206.05 538.14 177.27 679.85 229.74 537.12 268.62 510.19 245.45"/>
    <polygon class="libery-star-full-element libery-star-full-cls-15" points="537.12 268.62 594.34 326.91 679.85 229.74 537.12 268.62"/>
    <polygon class="libery-star-full-element libery-star-full-cls-11" points="594.34 326.91 545.79 363.32 542.09 427.96 567.14 369.66 571.91 363.83 594.34 326.91"/>
    <polygon class="libery-star-full-element libery-star-full-cls-11" points="152.09 440.69 120.17 371.6 94.89 340.14 150.15 378.54 152.09 440.69"/>
  </g>
</svg>